<svg xmlns="http://www.w3.org/2000/svg" width="292.288" height="266.815" viewBox="0 0 292.288 266.815">
    <defs>
        <clipPath id="prefix__clip-path">
            <rect id="prefix__Rectangle_2153" width="208.667" height="208.667" data-name="Rectangle 2153" rx="104.333" transform="translate(295.667 535.998)" style="fill:none"/>
        </clipPath>
        <style>
            .prefix__cls-8{fill:#ced0d1}.prefix__cls-10{fill:#edc0aa}.prefix__cls-11{fill:#efeff0}
        </style>
    </defs>
    <g id="prefix__Group_7783" data-name="Group 7783" transform="translate(-574 -840)">
        <g id="prefix__Group_7496" data-name="Group 7496" transform="translate(-489 120)">
            <g id="prefix__Group_7495" data-name="Group 7495" transform="translate(809.288 213.076)">
                <path id="prefix__Path_8222" d="M253.712 745.834c0-7.822 65.431-14.167 146.143-14.167S546 738.012 546 745.834 480.567 760 399.855 760s-146.143-6.342-146.143-14.166z" data-name="Path 8222" style="fill:rgba(239,239,239,.38);mix-blend-mode:darken;isolation:isolate"/>
                <g id="prefix__Group_7494" data-name="Group 7494">
                    <g id="prefix__Group_7489" data-name="Group 7489">
                        <circle id="prefix__Ellipse_2" cx="94.333" cy="94.333" r="94.333" data-name="Ellipse 2" transform="rotate(-45 906.244 -1.64)" style="fill:#cb8a33"/>
                        <path id="prefix__Path_8223" d="M400 536a104.332 104.332 0 0 0-104.333 104.331A104.332 104.332 0 0 0 400 744.664a104.332 104.332 0 0 0 104.333-104.333A104.332 104.332 0 0 0 400 536zm-94.333 104.331A94.333 94.333 0 1 1 400 734.664a94.439 94.439 0 0 1-94.333-94.333z" data-name="Path 8223" style="fill:#efefef"/>
                    </g>
                    <g id="prefix__Group_7493" data-name="Group 7493">
                        <g id="prefix__Group_7492" data-name="Group 7492">
                            <g id="prefix__Group_7491" data-name="Group 7491">
                                <path id="prefix__Path_8224" d="M435.458 633.951s2.375-46.667-35.458-46.5c-37.833-.167-35.458 46.5-35.458 46.5-4.375-.25-9.25-.375-8.25 11.5s12.041 13 12.041 13c.667 12 8.334 23.666 14 28.666s17.667 5 17.667 5 12 0 17.667-5 13.333-16.666 14-28.666c0 0 11.041-1.125 12.041-13s-3.875-11.751-8.25-11.5z" data-name="Path 8224" style="fill:#f2c4ae"/>
                                <path id="prefix__Path_8225" d="M448.962 600.451c0-15.05-12.379-21.816-16.816-23.757a.406.406 0 0 1 .152-.775 21.992 21.992 0 0 1 5.164.282c-11.588-8.151-28.422-7.121-35.107-6.3a.737.737 0 0 1-.471-1.361c4.947-3 11.7-4.084 11.7-4.084-28.984.544-41.074 12.604-44.462 16.882a.47.47 0 0 1-.828-.385c1-4.756 4.918-10.377 4.918-10.377-11.4 5.749-12.147 16.79-11.771 22.11a21.281 21.281 0 0 0-7.448 19.847c3.25 23.175 5.073 22.42 5.073 22.42s5.476-1 6.25 9.25c0 0 .813-22.585 1.563-25.835 5.3-6.345 9.46-17.121 9.46-17.121s38.838-11.842 51.987 10.119c5.03 8.4 3.74 30.337 3.74 30.337s1.806-7.971 6.9-7.449c0 0 3.115-15.611 3.43-27.528a8.522 8.522 0 0 1 2.564 4.475 28.9 28.9 0 0 0-.618-15.487.334.334 0 0 1 .561-.331c1.697 1.838 4.059 5.068 4.059 5.068z" data-name="Path 8225" style="fill:#864242"/>
                                <g id="prefix__Group_7490" data-name="Group 7490">
                                    <path id="prefix__Path_8226" d="M381.722 698.284h-2.555l2.319 2.154z" class="prefix__cls-8" data-name="Path 8226"/>
                                    <path id="prefix__Path_8227" d="M476.008 718.451L431.3 705.68l-18.118 27.353-10.557-13.333-.2.114-.282-.186.078.072-10.561 13.333-17.883-27-44.944 12.415s-7.875 7.875-18.5 27h184.175c-10.625-19.122-18.5-26.997-18.5-26.997z" data-name="Path 8227" style="fill:#00abec"/>
                                    <path id="prefix__Path_8228" d="M418.492 686.354q-.418.4-.825.763.406-.359.825-.763z" class="prefix__cls-10" data-name="Path 8228"/>
                                    <path id="prefix__Path_8229" d="M382.961 687.629c-.021-.016-.043-.03-.063-.046l-.184 1.673.235-1.636z" class="prefix__cls-10" data-name="Path 8229"/>
                                    <path id="prefix__Path_8230" d="M421.97 690.155l-.894-6.6a35.543 35.543 0 0 1-2.566 2.781 35.535 35.535 0 0 0 2.56-2.773z" class="prefix__cls-10" data-name="Path 8230"/>
                                    <path id="prefix__Path_8231" d="M402.139 719.627l.282.186.2-.114 20.728-19.258-.281-2.148-1.1-8.1c-2.609 3.409-14.975 10.341-20.267 10.394-5.1.05-18.266-8.881-19.194-9.515l-.792 7.212-.236 2.154z" class="prefix__cls-10" data-name="Path 8231"/>
                                    <path id="prefix__Path_8232" d="M402.217 719.7l-.078-.072-20.653-19.189-2.319-2.154-5.667 7.333.277.419 17.882 27z" class="prefix__cls-11" data-name="Path 8232"/>
                                    <path id="prefix__Path_8233" d="M423.372 700.587l-.019-.146-20.728 19.259 10.557 13.333L431.3 705.68l.041-.062-5.667-7.333z" class="prefix__cls-11" data-name="Path 8233"/>
                                    <path id="prefix__Path_8234" d="M423.372 700.587l2.3-2.3h-2.6v.009l.281 2.148z" class="prefix__cls-8" data-name="Path 8234"/>
                                    <path id="prefix__Path_8235" d="M401.708 700.587c5.292-.053 17.658-6.985 20.267-10.394l-.005-.038-.9-6.591a35.535 35.535 0 0 1-2.56 2.773l-.018.017q-.418.4-.825.763c-5.667 5-17.667 5-17.667 5s-11.162 0-17.039-4.488l-.012-.009-.235 1.636-.256 1.778.056.038c.928.634 14.086 9.565 19.194 9.515z" data-name="Path 8235" style="fill:#e0a489"/>
                                </g>
                            </g>
                        </g>
                    </g>
                </g>
            </g>
        </g>
    </g>
</svg>
