<svg xmlns="http://www.w3.org/2000/svg" width="425.907" height="368.823" viewBox="0 0 425.907 368.823">
    <defs>
        <style>
            .prefix__cls-3{fill:#ebebeb}.prefix__cls-4{fill:#5283c7}.prefix__cls-5{fill:#fff}.prefix__cls-6{fill:#80adeb}.prefix__cls-8{fill:#fafafa}.prefix__cls-9{fill:#455a64}.prefix__cls-10{fill:#27debf}.prefix__cls-12{fill:#e0e0e0}.prefix__cls-17{fill:#37474f}
        </style>
    </defs>
    <g id="prefix__Group_7785" data-name="Group 7785" transform="translate(-954.656 -864.114)">
        <g id="prefix__Group_7456" data-name="Group 7456" transform="translate(935.77 814.072)">
            <g id="prefix__Floor" transform="translate(18.886 205.643)" style="opacity:.354">
                <path id="prefix__Floor-2" d="M79.961 401.636c81.432 41.634 213.46 41.635 294.891 0s81.433-109.136 0-150.77-213.46-41.635-294.891 0-81.433 109.134 0 150.77z" data-name="Floor" transform="translate(-18.886 -219.641)" style="fill:#f5f5f5"/>
            </g>
            <g id="prefix__Shadows" transform="translate(88.435 284.286)">
                <path id="prefix__Shadow" d="M375.5 342.268c4.463 2.576 13.234 1.689 19.591-1.981l36.64-21.28c6.356-3.67 7.884-8.738 3.411-11.32s-13.249-1.7-19.6 1.975l-36.611 21.289c-6.358 3.675-7.892 8.74-3.431 11.317z" class="prefix__cls-3" transform="translate(-117.656 -305.428)"/>
                <path id="prefix__Shadow-2" d="M131.959 363.029l-37.268-21.517L131.958 320z" class="prefix__cls-3" data-name="Shadow" transform="translate(-94.691 -306.566)"/>
                <path id="prefix__Shadow-3" d="M244.716 374.694l-60.067-34.7 60.081-34.634z" class="prefix__cls-3" data-name="Shadow" transform="translate(-102.115 -305.358)"/>
            </g>
            <g id="prefix__Plants" transform="translate(20.744 211.293)">
                <g id="prefix__Plants-2" data-name="Plants" transform="translate(0 23.598)">
                    <g id="prefix__Group_7458" data-name="Group 7458">
                        <g id="prefix__Group_7456-2" data-name="Group 7456">
                            <path id="prefix__Path_8207" d="M75.454 307.069c.1-8.717-5.983-26.848-14.892-38.275s-23.032-19.874-33.176-16.54c-9.448 3.106-8.577 15.462 2.74 23.779s28.354 18.8 33.2 33l10.325 17.476z" class="prefix__cls-4" data-name="Path 8207" transform="translate(-20.911 -251.519)"/>
                        </g>
                        <g id="prefix__Group_7457" data-name="Group 7457" transform="translate(10.464 5.914)">
                            <path id="prefix__Path_8209" d="M76.9 319.537a.639.639 0 0 1-.568-.519c-5.479-29.826-29.26-54.3-43.6-59.819a.638.638 0 0 1-.366-.823.63.63 0 0 1 .824-.366c14.616 5.621 38.836 30.5 44.4 60.778a.637.637 0 0 1-.511.741.624.624 0 0 1-.179.008z" class="prefix__cls-5" data-name="Path 8209" transform="translate(-32.316 -257.965)"/>
                        </g>
                    </g>
                    <g id="prefix__Group_7461" data-name="Group 7461" transform="translate(5.274 37.61)">
                        <g id="prefix__Group_7459" data-name="Group 7459">
                            <path id="prefix__Path_8210" d="M71.763 341.382c-1.342-4.917-7.23-13.075-16.829-19.871-10.62-7.518-24.131-11.078-27.185-16.867-3.67-6.953 2.231-13.411 13.215-11.915s30.143 16.737 32.963 39.37z" class="prefix__cls-6" data-name="Path 8210" transform="translate(-26.659 -292.512)"/>
                        </g>
                        <g id="prefix__Group_7460" data-name="Group 7460" transform="translate(9.048 5.997)">
                            <path id="prefix__Path_8211" d="M74.766 336.806a.64.64 0 0 1-.544-.428c-8.819-25.6-28.16-34.783-37.155-36.061a.638.638 0 0 1-.541-.72.628.628 0 0 1 .72-.541c9.946 1.413 29.179 10.776 38.181 36.908a.639.639 0 0 1-.661.842z" class="prefix__cls-5" data-name="Path 8211" transform="translate(-36.52 -299.049)"/>
                        </g>
                    </g>
                </g>
                <g id="prefix__Plants-3" data-name="Plants" transform="translate(372.809)">
                    <g id="prefix__Group_7463" data-name="Group 7463" transform="translate(.28)">
                        <path id="prefix__Path_8212" d="M434.317 280.135s1.223-18.378 12.054-32.021 10.165-19.26 2.7-22.015-24.813 13.688-20.953 35.706 6.199 18.33 6.199 18.33z" class="prefix__cls-4" data-name="Path 8212" transform="translate(-427.561 -225.798)"/>
                        <g id="prefix__Group_7462" data-name="Group 7462" transform="translate(2.943 2.76)">
                            <path id="prefix__Path_8214" d="M431.274 269.886a.426.426 0 0 1-.426-.4c-1.265-20.238 13.027-36.844 18.378-40.6a.426.426 0 0 1 .49.7c-5.245 3.685-19.259 19.975-18.016 39.85a.428.428 0 0 1-.4.453z" class="prefix__cls-5" data-name="Path 8214" transform="translate(-430.769 -228.807)"/>
                        </g>
                    </g>
                    <g id="prefix__Group_7466" data-name="Group 7466" transform="translate(0 29.572)">
                        <g id="prefix__Group_7465" data-name="Group 7465">
                            <path id="prefix__Path_8215" d="M431.348 297.972a96.956 96.956 0 0 0 14.913 3.589c8.387 1.328 12.088-2.683 12.088-2.683s-3.3-7.865-8.065-10.073a46.8 46.8 0 0 1 14.556 5.971s5.121.077 7.16-7.739c0 0-3.035-4.7-13.215-7.244 0 0 6.194-1.559 15.119.717.67.266 3.522-9.84 4.385-14.5s-1.011-4.613-4.645-5.584-15.674-3.674-17.949-1.675-3.431 8.835-3.431 8.835a16.118 16.118 0 0 1-.341-8.664s-3.271-1.279-8.347.2c-4.152 1.207-4.354 4.033-4.166 7.226a31.215 31.215 0 0 0 1.8 8.107s-3.237-4.149-3.337-13.143c0 0-8.5 4.221-9.947 12.655-.788 4.555-1.9 17.947 3.422 24.005z" class="prefix__cls-6" data-name="Path 8215" transform="translate(-427.256 -258.031)"/>
                            <g id="prefix__Group_7464" data-name="Group 7464" transform="translate(5.223 4.949)">
                                <path id="prefix__Path_8216" d="M433.42 296.777a.47.47 0 0 0 .425-.267c6.768-14.06 31.93-30.4 40.943-32.151a.472.472 0 1 0-.181-.927c-9.161 1.782-34.737 18.384-41.607 32.668a.469.469 0 0 0 .22.628.463.463 0 0 0 .2.049z" class="prefix__cls-5" data-name="Path 8216" transform="translate(-432.949 -263.424)"/>
                            </g>
                        </g>
                    </g>
                </g>
            </g>
            <g id="prefix__Computer_Screen" data-name="Computer Screen" transform="translate(69.804 50.042)">
                <g id="prefix__Group_7471" data-name="Group 7471">
                    <g id="prefix__Group_7469" data-name="Group 7469">
                        <g id="prefix__Path_8217" data-name="Path 8217" style="stroke-miterlimit:10;fill:#fafafa">
                            <path d="M76.583 328.827c-1.01 0-1.613-.842-1.613-2.252V172.277l188.895-109.06.002 153.622c0 1.125-.385 2.411-1.085 3.623-.7 1.212-1.622 2.19-2.596 2.752L78.066 328.362c-.527.304-1.04.465-1.483.465z" style="stroke:none" transform="translate(-74.385 -51.046)"/>
                            <path d="M76.583 329.411v-1.17c.34 0 .752-.133 1.19-.385l182.12-105.149c1.838-1.06 3.39-3.747 3.39-5.868L263.28 64.23 75.555 172.615v153.96c0 .622.133 1.667 1.028 1.667v1.17m0 0c-1.303 0-2.198-1.04-2.198-2.837V171.94L264.45 62.204l.002 154.635c0 2.534-1.779 5.614-3.973 6.882L78.358 328.869c-.638.368-1.241.543-1.775.542z" style="stroke:none;fill:#e0e0e0" transform="translate(-74.385 -51.046)"/>
                        </g>
                        <path id="prefix__Path_8218" d="M74.385 171.939v25.822L264.449 88.027V62.2z" class="prefix__cls-4" data-name="Path 8218" transform="translate(-74.385 -51.046)"/>
                        <path id="prefix__Path_8219" d="M90.632 180.092v3.7c0 .757.537 1.066 1.193.688l58.435-33.738v-6.452l-58.436 33.738a2.642 2.642 0 0 0-1.192 2.064z" class="prefix__cls-8" data-name="Path 8219" transform="translate(-75.726 -57.821)"/>
                        <path id="prefix__Path_8220" d="M161.887 140.334c.658-.38 1.192-.072 1.192.688v3.7a2.636 2.636 0 0 1-1.192 2.064l-6.263 3.616v-6.452z" class="prefix__cls-9" data-name="Path 8220" transform="translate(-81.09 -57.481)"/>
                        <path id="prefix__Path_8221" d="M74.385 162.613a8.781 8.781 0 0 1 3.973-6.881l182.12-105.148c2.195-1.266 3.973-.239 3.973 2.294V61.2L74.385 170.936z" class="prefix__cls-9" data-name="Path 8221" transform="translate(-74.385 -50.042)"/>
                        <g id="prefix__Group_7467" data-name="Group 7467" transform="translate(167.079 7.685)">
                            <path id="prefix__Path_8222" d="M258.356 66.113a4.119 4.119 0 0 0-1.862 3.228c0 1.188.834 1.671 1.862 1.076a4.12 4.12 0 0 0 1.864-3.228c.001-1.189-.834-1.67-1.864-1.076z" class="prefix__cls-10" data-name="Path 8222" transform="translate(-256.494 -59.032)"/>
                            <path id="prefix__Path_8223" d="M264.791 62.393a4.118 4.118 0 0 0-1.863 3.228c0 1.188.834 1.67 1.863 1.076a4.119 4.119 0 0 0 1.863-3.228c.001-1.189-.833-1.669-1.863-1.076z" class="prefix__cls-10" data-name="Path 8223" transform="translate(-257.025 -58.725)"/>
                            <path id="prefix__Path_8224" d="M271.225 58.673a4.116 4.116 0 0 0-1.863 3.228c0 1.188.834 1.67 1.863 1.076a4.119 4.119 0 0 0 1.863-3.228c.001-1.189-.833-1.67-1.863-1.076z" class="prefix__cls-10" data-name="Path 8224" transform="translate(-257.556 -58.418)"/>
                        </g>
                        <g id="prefix__Group_7468" data-name="Group 7468" transform="translate(107.73 31.7)" style="opacity:.1">
                            <path id="prefix__Path_8225" d="M216.189 108.625a9 9 0 0 0-4.074 7.055c0 2.6 1.824 3.652 4.074 2.352a9 9 0 0 0 4.073-7.055c-.001-2.598-1.824-3.651-4.073-2.352z" data-name="Path 8225" transform="translate(-193.482 -86.531)"/>
                            <path id="prefix__Path_8226" d="M195.879 120.351a9 9 0 0 0-4.073 7.055c0 2.6 1.823 3.652 4.073 2.352a9 9 0 0 0 4.074-7.055c-.001-2.598-1.825-3.651-4.074-2.352z" data-name="Path 8226" transform="translate(-191.806 -87.498)"/>
                            <path id="prefix__Path_8227" d="M236.5 96.9a9.005 9.005 0 0 0-4.074 7.056c0 2.6 1.824 3.652 4.074 2.352a9.005 9.005 0 0 0 4.074-7.056c-.002-2.599-1.826-3.652-4.074-2.352z" data-name="Path 8227" transform="translate(-195.158 -85.563)"/>
                            <path id="prefix__Path_8228" d="M256.81 85.149a9.005 9.005 0 0 0-4.074 7.056c0 2.6 1.824 3.652 4.074 2.352a9 9 0 0 0 4.073-7.055c-.001-2.602-1.824-3.651-4.073-2.353z" data-name="Path 8228" transform="translate(-196.835 -84.593)"/>
                        </g>
                    </g>
                    <path id="prefix__Path_8229" d="M94.6 209.8l44.229-25.536c2.195-1.266 3.974-.239 3.974 2.294v42.466a8.782 8.782 0 0 1-3.974 6.881l-44.223 25.536c-2.194 1.267-3.973.24-3.973-2.294v-42.466A8.783 8.783 0 0 1 94.6 209.8z" class="prefix__cls-12" data-name="Path 8229" transform="translate(-75.726 -61.075)"/>
                    <path id="prefix__Path_8230" d="M163.664 167.415l92.674-53.509c2.194-1.266 3.973-.239 3.973 2.294v42.466a8.783 8.783 0 0 1-3.973 6.881l-92.673 53.509c-2.194 1.267-3.973.24-3.973-2.294V174.3a8.781 8.781 0 0 1 3.972-6.885z" class="prefix__cls-12" data-name="Path 8230" transform="translate(-81.425 -55.268)"/>
                    <g id="prefix__Group_7470" data-name="Group 7470" transform="translate(14.907 172.104)">
                        <path id="prefix__Path_8231" d="M94.606 278.8l70.317-40.6c2.194-1.266 3.973-.367 3.973 2.01a8.517 8.517 0 0 1-3.972 6.6l-70.317 40.6c-2.195 1.266-3.973.367-3.973-2.01a8.518 8.518 0 0 1 3.972-6.6z" class="prefix__cls-12" data-name="Path 8231" transform="translate(-90.633 -237.628)"/>
                        <path id="prefix__Path_8232" d="M94.606 295.213l70.317-40.6c2.194-1.267 3.973-.367 3.973 2.009a8.517 8.517 0 0 1-3.972 6.6l-70.317 40.6c-2.195 1.267-3.973.367-3.973-2.009a8.518 8.518 0 0 1 3.972-6.6z" class="prefix__cls-12" data-name="Path 8232" transform="translate(-90.633 -238.982)"/>
                        <path id="prefix__Path_8233" d="M94.606 311.628l70.317-40.6c2.194-1.267 3.973-.367 3.973 2.009a8.514 8.514 0 0 1-3.972 6.6l-70.317 40.6c-2.195 1.267-3.973.367-3.973-2.009a8.515 8.515 0 0 1 3.972-6.6z" class="prefix__cls-12" data-name="Path 8233" transform="translate(-90.633 -240.337)"/>
                    </g>
                </g>
            </g>
            <g id="prefix__Envelope" transform="translate(121.975 167.269)">
                <g id="prefix__Group_7474" data-name="Group 7474">
                    <g id="prefix__Letter">
                        <g id="prefix__Group_7473" data-name="Group 7473" transform="translate(.004 .001)">
                            <g id="prefix__Group_7472" data-name="Group 7472">
                                <path id="prefix__Path_8234" d="M131.253 252.917a5.268 5.268 0 0 1 2.384-4.129l121.942-70.4a5.268 5.268 0 0 1 4.767 0l2.686 1.551a5.267 5.267 0 0 1 2.384 4.129v93.471a5.289 5.289 0 0 1-2.384 4.129l-121.941 70.4a5.294 5.294 0 0 1-4.767 0l-2.686-1.551a5.291 5.291 0 0 1-2.384-4.129z" class="prefix__cls-4" data-name="Path 8234" transform="translate(-131.253 -177.815)"/>
                            </g>
                        </g>
                        <path id="prefix__Path_8235" d="M132.011 250.569l6.765 3.9 126-72.754a4.929 4.929 0 0 0-1.68-1.782l-2.7-1.545a5.207 5.207 0 0 0-4.758 0L133.7 248.787a4.852 4.852 0 0 0-1.689 1.782z" data-name="Path 8235" transform="translate(-131.312 -177.814)" style="opacity:.4;fill:#fff"/>
                        <path id="prefix__Path_8236" d="M131.249 259.459v93.469a5.256 5.256 0 0 0 2.391 4.128l2.684 1.556a3.828 3.828 0 0 0 .654.293 5.145 5.145 0 0 0 .981.226 5.84 5.84 0 0 0 1.883-.068c.158-.033.317-.079.462-.124a2.164 2.164 0 0 0 .283-.113 1.414 1.414 0 0 1-1.139-.022 1.651 1.651 0 0 1-.733-1.568v-93.469a2.089 2.089 0 0 1 1.24-2.029l-1.24-.722-6.765-3.9a4.893 4.893 0 0 0-.701 2.343z" data-name="Path 8236" transform="translate(-131.249 -184.359)" style="opacity:.1"/>
                        <path id="prefix__Path_8237" d="M139.385 254.8l56.472 21.1a9.175 9.175 0 0 0 10.893-3.586l9.068-13.893 50.019-76.632-48.211 77.154 48.459 18.957a4.96 4.96 0 0 1-.744 2.379l-47.851-21.127-10.537 16.868a9.176 9.176 0 0 1-11.49 3.529l-7.5-3.312-47.84 76.349a1.651 1.651 0 0 1-.733-1.568v-1.556l48.34-73.328z" data-name="Path 8237" transform="translate(-131.92 -178.142)" style="opacity:.2"/>
                    </g>
                </g>
            </g>
            <g id="prefix__Mobile_Screen" data-name="Mobile Screen" transform="translate(230.056 73.535)">
                <g id="prefix__Group_7481" data-name="Group 7481">
                    <path id="prefix__Path_8238" d="M249.052 138.73v214.6c0 2.533 1.779 3.56 3.973 2.294l96.407-55.659a8.783 8.783 0 0 0 3.973-6.881v-214.6c0-2.533-1.779-3.56-3.973-2.294l-96.407 55.659a8.783 8.783 0 0 0-3.973 6.881z" data-name="Path 8238" transform="translate(-249.052 -75.648)" style="stroke:#e0e0e0;stroke-width:1.17px;stroke-miterlimit:10;fill:#fafafa"/>
                    <path id="prefix__Path_8239" d="M255.142 148.03a2.179 2.179 0 0 1 1.032-1.673l10.982-6.338c.571-.329 1.033-.115 1.033.479a2.177 2.177 0 0 1-1.033 1.673l-10.982 6.338c-.574.329-1.032.114-1.032-.479z" class="prefix__cls-9" data-name="Path 8239" transform="translate(-249.555 -80.948)"/>
                    <path id="prefix__Path_8240" d="M255.142 152.688a2.179 2.179 0 0 1 1.032-1.673l10.982-6.338c.571-.329 1.033-.115 1.033.479a2.177 2.177 0 0 1-1.033 1.673l-10.982 6.338c-.574.333-1.032.114-1.032-.479z" class="prefix__cls-9" data-name="Path 8240" transform="translate(-249.555 -81.332)"/>
                    <path id="prefix__Path_8241" d="M255.142 157.346a2.179 2.179 0 0 1 1.032-1.673l10.982-6.338c.571-.329 1.033-.115 1.033.479a2.177 2.177 0 0 1-1.033 1.673l-10.982 6.338c-.574.329-1.032.114-1.032-.479z" class="prefix__cls-9" data-name="Path 8241" transform="translate(-249.555 -81.717)"/>
                    <path id="prefix__Path_8242" d="M353.621 97.659v-1.714a.111.111 0 0 0-.169-.109l-1.321.6a.157.157 0 0 1-.22-.1 2.892 2.892 0 0 0-.294-.655.365.365 0 0 1-.019-.32l.88-1.775a.2.2 0 0 0-.078-.258l-.955-.552a.2.2 0 0 0-.263.061l-1.1 1.651a.362.362 0 0 1-.287.142 2.971 2.971 0 0 0-.715.073.157.157 0 0 1-.2-.14l-.145-1.441a.11.11 0 0 0-.179-.092l-1.484.857a.4.4 0 0 0-.177.277l-.149 1.651a.553.553 0 0 1-.154.308 8.89 8.89 0 0 0-.825.873.284.284 0 0 1-.292.083l-.952-.332a.232.232 0 0 0-.268.1l-1.091 1.89a.232.232 0 0 0 .048.281l.764.659a.283.283 0 0 1 .074.294 8.962 8.962 0 0 0-.343 1.15.556.556 0 0 1-.19.288l-1.356.954a.4.4 0 0 0-.151.292v1.714a.111.111 0 0 0 .169.109l1.321-.6a.157.157 0 0 1 .22.1 2.893 2.893 0 0 0 .295.655.365.365 0 0 1 .019.32l-.88 1.775a.2.2 0 0 0 .078.259l.955.551a.2.2 0 0 0 .263-.061l1.1-1.651a.365.365 0 0 1 .287-.142 2.971 2.971 0 0 0 .715-.073.158.158 0 0 1 .2.14l.145 1.441a.111.111 0 0 0 .179.092l1.484-.857a.4.4 0 0 0 .177-.277l.149-1.651a.554.554 0 0 1 .155-.308 8.99 8.99 0 0 0 .824-.873.284.284 0 0 1 .292-.083l.952.332a.232.232 0 0 0 .268-.1l1.091-1.889a.233.233 0 0 0-.048-.282l-.764-.659a.283.283 0 0 1-.074-.294 8.976 8.976 0 0 0 .343-1.151.555.555 0 0 1 .19-.288l1.356-.954a.4.4 0 0 0 .15-.291zm-5.8 5.389c-1.385.8-2.507.151-2.507-1.448a5.542 5.542 0 0 1 2.507-4.343c1.384-.8 2.507-.151 2.507 1.448a5.543 5.543 0 0 1-2.51 4.343z" class="prefix__cls-17" data-name="Path 8242" transform="translate(-256.724 -77.059)"/>
                    <g id="prefix__Group_7475" data-name="Group 7475" transform="translate(31.78 60.109)">
                        <path id="prefix__Path_8243" d="M304.086 143.949c11.265-6.5 20.4-1.231 20.4 11.776s-9.132 28.823-20.4 35.327-20.4 1.231-20.4-11.776 9.137-28.823 20.4-35.327z" class="prefix__cls-9" data-name="Path 8243" transform="translate(-283.691 -141.164)"/>
                        <path id="prefix__Path_8244" d="M305.17 155.277c3.654-2.11 6.618-.4 6.618 3.819a14.628 14.628 0 0 1-6.618 11.462c-3.654 2.109-6.617.4-6.617-3.821a14.624 14.624 0 0 1 6.617-11.46z" class="prefix__cls-6" data-name="Path 8244" transform="translate(-284.918 -142.254)"/>
                        <path id="prefix__Path_8245" d="M317.685 179.185c0-6.933-4.868-9.743-10.871-6.276l-3.753 2.166c-6 3.466-10.871 11.9-10.871 18.829v1.891a11.151 11.151 0 0 0 3.5.541 18.393 18.393 0 0 0 9.093-2.786 40.181 40.181 0 0 0 12.9-12.757z" class="prefix__cls-6" data-name="Path 8245" transform="translate(-284.392 -143.661)"/>
                    </g>
                    <path id="prefix__Path_8246" d="M285.677 214.7l36.823-21.262c1.1-.633 1.986-.183 1.986 1.006a4.258 4.258 0 0 1-1.986 3.3L285.677 219c-1.1.633-1.986.184-1.986-1.006a4.26 4.26 0 0 1 1.986-3.294z" class="prefix__cls-4" data-name="Path 8246" transform="translate(-251.911 -85.346)"/>
                    <path id="prefix__Path_8247" d="M281.37 230.856l44.722-25.848c1.1-.634 1.986-.183 1.986 1a4.261 4.261 0 0 1-1.986 3.3l-44.722 25.851c-1.1.633-1.986.183-1.986-1a4.258 4.258 0 0 1 1.986-3.303z" class="prefix__cls-9" data-name="Path 8247" transform="translate(-251.555 -86.301)"/>
                    <path id="prefix__Path_8248" d="M331.486 227.075l12.523-7.231c.658-.38 1.191-.206 1.191.388a2.386 2.386 0 0 1-1.191 1.768l-12.523 7.231c-.658.38-1.192.206-1.192-.388a2.39 2.39 0 0 1 1.192-1.768z" class="prefix__cls-17" data-name="Path 8248" transform="translate(-255.757 -87.532)"/>
                    <g id="prefix__Group_7476" data-name="Group 7476" transform="translate(11.181 160.478)">
                        <path id="prefix__Path_8249" d="M263.225 261.451l18.388-10.617c1.1-.633 1.986-.12 1.986 1.147v12.626a4.389 4.389 0 0 1-1.986 3.441l-18.388 10.616c-1.1.634-1.986.12-1.986-1.147v-12.626a4.391 4.391 0 0 1 1.986-3.44z" class="prefix__cls-6" data-name="Path 8249" transform="translate(-261.239 -250.562)"/>
                        <path id="prefix__Path_8250" d="M266.494 263.684l12.523-7.231c.658-.38 1.192-.206 1.192.388a2.39 2.39 0 0 1-1.192 1.764l-12.523 7.231c-.659.38-1.192.206-1.192-.388a2.384 2.384 0 0 1 1.192-1.764z" class="prefix__cls-6" data-name="Path 8250" transform="translate(-261.574 -251.032)"/>
                        <path id="prefix__Path_8251" d="M265.3 270.443v3.7c0 .76.533 1.068 1.192.688l12.523-7.231a2.636 2.636 0 0 0 1.192-2.064v-3.7c0-.76-.534-1.068-1.192-.688l-12.523 7.232a2.632 2.632 0 0 0-1.192 2.063z" class="prefix__cls-6" data-name="Path 8251" transform="translate(-261.574 -251.423)"/>
                    </g>
                    <g id="prefix__Group_7477" data-name="Group 7477" transform="translate(40.995 143.266)">
                        <path id="prefix__Path_8252" d="M295.721 242.689l18.388-10.616c1.1-.633 1.986-.12 1.986 1.147v12.626a4.392 4.392 0 0 1-1.986 3.441L295.721 259.9c-1.1.633-1.986.12-1.986-1.147v-12.624a4.392 4.392 0 0 1 1.986-3.44z" class="prefix__cls-6" data-name="Path 8252" transform="translate(-293.735 -231.801)"/>
                        <path id="prefix__Path_8253" d="M298.99 244.923l12.523-7.231c.658-.381 1.192-.206 1.192.387a2.387 2.387 0 0 1-1.192 1.764l-12.523 7.231c-.659.38-1.192.206-1.192-.387a2.384 2.384 0 0 1 1.192-1.764z" class="prefix__cls-6" data-name="Path 8253" transform="translate(-294.07 -232.271)"/>
                        <path id="prefix__Path_8254" d="M297.8 251.682v3.7c0 .76.533 1.068 1.192.688l12.523-7.231a2.636 2.636 0 0 0 1.192-2.064v-3.7c0-.76-.533-1.068-1.192-.688l-12.523 7.231a2.635 2.635 0 0 0-1.192 2.064z" class="prefix__cls-6" data-name="Path 8254" transform="translate(-294.07 -232.662)"/>
                    </g>
                    <g id="prefix__Group_7478" data-name="Group 7478" transform="translate(70.809 126.051)">
                        <path id="prefix__Path_8255" d="M328.217 223.927l18.389-10.617c1.1-.633 1.986-.119 1.986 1.147v12.626a4.391 4.391 0 0 1-1.986 3.441l-18.388 10.616c-1.1.634-1.987.12-1.987-1.147v-12.626a4.391 4.391 0 0 1 1.986-3.44z" class="prefix__cls-6" data-name="Path 8255" transform="translate(-326.231 -213.039)"/>
                        <path id="prefix__Path_8256" d="M331.486 226.16l12.523-7.231c.659-.38 1.192-.206 1.192.388a2.384 2.384 0 0 1-1.192 1.764l-12.523 7.231c-.658.38-1.192.206-1.192-.388a2.39 2.39 0 0 1 1.192-1.764z" class="prefix__cls-6" data-name="Path 8256" transform="translate(-326.566 -213.508)"/>
                        <path id="prefix__Path_8257" d="M330.294 232.919v3.7c0 .761.534 1.069 1.192.688l12.523-7.231a2.632 2.632 0 0 0 1.192-2.064v-3.7c0-.761-.534-1.068-1.192-.688l-12.523 7.231a2.636 2.636 0 0 0-1.192 2.064z" class="prefix__cls-6" data-name="Path 8257" transform="translate(-326.566 -213.899)"/>
                    </g>
                    <path id="prefix__Path_8258" d="M265.212 290.116l74.044-42.749c2.194-1.267 3.973-.367 3.973 2.009a8.52 8.52 0 0 1-3.973 6.6l-74.044 42.748c-2.194 1.267-3.973.367-3.973-2.009a8.519 8.519 0 0 1 3.973-6.599z" class="prefix__cls-12" data-name="Path 8258" transform="translate(-250.058 -89.773)"/>
                    <path id="prefix__Path_8259" d="M265.212 308.877l74.044-42.748c2.194-1.267 3.973-.367 3.973 2.009a8.519 8.519 0 0 1-3.973 6.6l-74.044 42.749c-2.194 1.267-3.973.367-3.973-2.009a8.52 8.52 0 0 1 3.973-6.601z" class="prefix__cls-12" data-name="Path 8259" transform="translate(-250.058 -91.321)"/>
                    <path id="prefix__Path_8260" d="M291.66 319.693l25.84-14.92c1.1-.633 1.986-.119 1.986 1.147v8.323a4.393 4.393 0 0 1-1.987 3.44L291.66 332.6c-1.1.634-1.986.12-1.986-1.147v-8.322a4.389 4.389 0 0 1 1.986-3.438z" class="prefix__cls-4" data-name="Path 8260" transform="translate(-252.405 -94.536)"/>
                    <g id="prefix__Group_7479" data-name="Group 7479" transform="translate(14.908 180.874)">
                        <path id="prefix__Path_8261" d="M267.164 295.368a4.119 4.119 0 0 0-1.864 3.232c0 1.188.835 1.67 1.863 1.076a4.119 4.119 0 0 0 1.863-3.228c.002-1.193-.832-1.674-1.862-1.08z" class="prefix__cls-8" data-name="Path 8261" transform="translate(-265.301 -274.635)"/>
                        <path id="prefix__Path_8262" d="M273.6 291.647a4.121 4.121 0 0 0-1.862 3.229c0 1.188.834 1.67 1.862 1.076a4.119 4.119 0 0 0 1.863-3.229c-.001-1.188-.835-1.669-1.863-1.076z" class="prefix__cls-8" data-name="Path 8262" transform="translate(-265.832 -274.328)"/>
                        <path id="prefix__Path_8263" d="M280.033 287.927a4.119 4.119 0 0 0-1.863 3.228c0 1.189.834 1.671 1.863 1.076A4.119 4.119 0 0 0 281.9 289c0-1.185-.838-1.666-1.867-1.073z" class="prefix__cls-8" data-name="Path 8263" transform="translate(-266.363 -274.021)"/>
                        <path id="prefix__Path_8264" d="M286.467 284.207a4.119 4.119 0 0 0-1.863 3.228c0 1.189.834 1.671 1.863 1.076a4.116 4.116 0 0 0 1.863-3.228c.001-1.183-.83-1.669-1.863-1.076z" class="prefix__cls-8" data-name="Path 8264" transform="translate(-266.894 -273.714)"/>
                        <path id="prefix__Path_8265" d="M292.9 280.487a4.122 4.122 0 0 0-1.863 3.228c0 1.189.835 1.671 1.863 1.076a4.118 4.118 0 0 0 1.863-3.228c.002-1.189-.832-1.67-1.863-1.076z" class="prefix__cls-8" data-name="Path 8265" transform="translate(-267.425 -273.406)"/>
                        <path id="prefix__Path_8266" d="M299.336 276.767a4.118 4.118 0 0 0-1.863 3.228c0 1.188.834 1.671 1.863 1.076a4.121 4.121 0 0 0 1.862-3.228c.002-1.189-.833-1.67-1.862-1.076z" class="prefix__cls-8" data-name="Path 8266" transform="translate(-267.956 -273.099)"/>
                        <path id="prefix__Path_8267" d="M305.77 273.047a4.117 4.117 0 0 0-1.863 3.228c0 1.188.834 1.67 1.863 1.076a4.122 4.122 0 0 0 1.863-3.228c.001-1.189-.833-1.67-1.863-1.076z" class="prefix__cls-8" data-name="Path 8267" transform="translate(-268.487 -272.792)"/>
                    </g>
                    <g id="prefix__Group_7480" data-name="Group 7480" transform="translate(14.908 198.105)">
                        <path id="prefix__Path_8268" d="M267.164 314.15a4.12 4.12 0 0 0-1.863 3.228c0 1.188.835 1.671 1.863 1.076a4.119 4.119 0 0 0 1.863-3.228c.001-1.189-.833-1.67-1.863-1.076z" class="prefix__cls-8" data-name="Path 8268" transform="translate(-265.301 -293.417)"/>
                        <path id="prefix__Path_8269" d="M273.6 310.43a4.118 4.118 0 0 0-1.862 3.228c0 1.188.834 1.67 1.862 1.076a4.119 4.119 0 0 0 1.863-3.228c-.001-1.189-.835-1.67-1.863-1.076z" class="prefix__cls-8" data-name="Path 8269" transform="translate(-265.832 -293.11)"/>
                        <path id="prefix__Path_8270" d="M280.033 306.71a4.116 4.116 0 0 0-1.863 3.228c0 1.188.834 1.67 1.863 1.076a4.122 4.122 0 0 0 1.863-3.229c.004-1.185-.834-1.669-1.863-1.075z" class="prefix__cls-8" data-name="Path 8270" transform="translate(-266.363 -292.802)"/>
                        <path id="prefix__Path_8271" d="M286.467 302.989a4.119 4.119 0 0 0-1.863 3.228c0 1.189.834 1.671 1.863 1.076a4.116 4.116 0 0 0 1.863-3.228c.001-1.188-.83-1.665-1.863-1.076z" class="prefix__cls-8" data-name="Path 8271" transform="translate(-266.894 -292.496)"/>
                        <path id="prefix__Path_8272" d="M292.9 299.269a4.122 4.122 0 0 0-1.863 3.228c0 1.189.835 1.671 1.863 1.076a4.116 4.116 0 0 0 1.863-3.228c.002-1.188-.832-1.669-1.863-1.076z" class="prefix__cls-8" data-name="Path 8272" transform="translate(-267.425 -292.188)"/>
                        <path id="prefix__Path_8273" d="M299.336 295.549a4.119 4.119 0 0 0-1.863 3.228c0 1.189.834 1.671 1.863 1.076a4.118 4.118 0 0 0 1.862-3.228c.002-1.188-.833-1.67-1.862-1.076z" class="prefix__cls-8" data-name="Path 8273" transform="translate(-267.956 -291.881)"/>
                        <path id="prefix__Path_8274" d="M305.77 291.829a4.118 4.118 0 0 0-1.863 3.228c0 1.189.834 1.671 1.863 1.076a4.12 4.12 0 0 0 1.863-3.228c.001-1.189-.833-1.67-1.863-1.076z" class="prefix__cls-8" data-name="Path 8274" transform="translate(-268.487 -291.574)"/>
                    </g>
                </g>
            </g>
            <g id="prefix__Key" transform="translate(345.608 131.732)">
                <g id="prefix__Group_7484" data-name="Group 7484">
                    <g id="prefix__Group_7483" data-name="Group 7483" transform="translate(0 104.317)">
                        <g id="prefix__Group_7482" data-name="Group 7482">
                            <path id="prefix__Path_8275" d="M394.437 327.416a17.865 17.865 0 0 1-9.035-2.389c-6.611-3.818-10.4-11.807-10.4-21.919 0-17.783 11.3-38.239 25.731-46.569 7.769-4.485 15.484-4.972 21.727-1.368 6.611 3.818 10.4 11.807 10.4 21.919 0 17.783-11.3 38.239-25.73 46.569a25.567 25.567 0 0 1-12.693 3.757zm18.955-61.823a13.585 13.585 0 0 0-6.262 2.03c-10.479 6.05-19.331 22.3-19.331 35.484 0 5.336 1.5 9.387 4 10.833 2.854 1.648 6.819-.15 8.928-1.367 10.478-6.05 19.331-22.3 19.331-35.484 0-5.336-1.5-9.387-4-10.834a5.258 5.258 0 0 0-2.666-.661z" class="prefix__cls-9" data-name="Path 8275" transform="translate(-374.999 -252.782)"/>
                        </g>
                        <path id="prefix__Path_8276" d="M423.862 281.15c0-9.988-6.293-13.682-6.293-13.682 2.507 1.448 4 5.5 4 10.834 0 13.185-8.853 29.434-19.331 35.484-2.109 1.217-6.074 3.015-8.928 1.368 0 0 5.311 3.3 12.647-.707 10.626-5.794 17.905-20.113 17.905-33.297z" class="prefix__cls-17" data-name="Path 8276" transform="translate(-376.511 -253.994)"/>
                    </g>
                    <path id="prefix__Path_8277" d="M414.417 145.7a6.618 6.618 0 0 0-13.236 0v105.258a3.288 3.288 0 0 0 1.939 2.7 10.34 10.34 0 0 0 9.359 0 3.29 3.29 0 0 0 1.939-2.7V145.717z" class="prefix__cls-17" data-name="Path 8277" transform="translate(-377.16 -139.081)"/>
                    <path id="prefix__Path_8278" d="M407.523 171.285a8.446 8.446 0 0 0-3.822-6.62 2.652 2.652 0 0 0-2.734-.241v-.005l-16.33 9.408-.395.235a.882.882 0 0 0-.16.094 5.176 5.176 0 0 0-.782.639 5.409 5.409 0 0 0 6.379 8.6c.1-.057.207-.123.31-.179l16.433-9.465a2.693 2.693 0 0 0 1.101-2.466z" class="prefix__cls-9" data-name="Path 8278" transform="translate(-375.552 -141.15)"/>
                    <path id="prefix__Path_8279" d="M407.27 200.01a8.447 8.447 0 0 0-3.822-6.619 2.654 2.654 0 0 0-2.734-.241v-.005l-19.138 10.991-.4.235a.881.881 0 0 0-.16.095 5.123 5.123 0 0 0-.781.639 5.409 5.409 0 0 0 6.378 8.6c.1-.057.207-.123.31-.179l19.242-11.047a2.691 2.691 0 0 0 1.105-2.469z" class="prefix__cls-9" data-name="Path 8279" transform="translate(-375.299 -143.52)"/>
                </g>
            </g>
        </g>
    </g>
</svg>
